<?xml version="1.0" encoding="utf-8"?>
<!-- Generator: Adobe Illustrator 22.0.0, SVG Export Plug-In . SVG Version: 6.00 Build 0)  -->
<svg version="1.1" id="Layer_1" xmlns="http://www.w3.org/2000/svg" xmlns:xlink="http://www.w3.org/1999/xlink" x="0px" y="0px"
	 viewBox="0 0 1366 768" style="enable-background:new 0 0 1366 768;" xml:space="preserve">
<style type="text/css">
	.st0{display:none;}
	.st1{display:inline;fill:#505355;}
	.st2{display:inline;fill:#FFFFFF;}
	.st3{display:inline;fill:#7D8281;}
	.st4{display:inline;fill:#838384;}
	.st5{fill:none;}
	.st6{fill:#5A6E7F;}
	.st7{fill:#FFFFFF;}
	.st8{fill:#838384;}
	.st9{fill:#505355;}
	.st10{display:inline;fill:#5E6060;}
	.st11{display:inline;fill:#6C6D6D;}
	.st12{display:inline;}
	.st13{fill:#6C6D6D;}
	.st14{display:inline;fill:#808785;}
	.st15{display:inline;fill:#676868;}
</style>
<g class="st0">
	<path class="st1" d="M796.8,411.7c0.2,0,0.3,0,0.5,0V180.3H556.2v322.1h177.6c-2.6-7.1-4.1-14.6-4.1-22.5
		C729.4,442.5,759.5,412,796.8,411.7z M596.8,226H777v21.5H596.8V226z M576.4,274.7H777v21.5H576.4V274.7z M576.4,323.5H777v21.5
		H576.4V323.5z M727.2,442.6H576.4V421h150.7V442.6z M576.4,393.8v-21.5H777v21.5H576.4z"/>
	<rect x="596.8" y="226" class="st2" width="180.2" height="21.5"/>
	<rect x="576.4" y="274.7" class="st2" width="200.6" height="21.5"/>
	<rect x="576.4" y="323.5" class="st2" width="200.6" height="21.5"/>
	<rect x="576.4" y="372.3" class="st2" width="200.6" height="21.5"/>
	<rect x="576.4" y="421" class="st2" width="150.7" height="21.5"/>
	<path class="st3" d="M796.9,429c-27.8,0.2-50.2,22.9-50,50.7c0.2,27.8,22.9,50.2,50.7,50c27.8-0.2,50.2-22.9,50-50.7
		C847.4,451.2,824.7,428.8,796.9,429z M832.8,490.1H808v24.8h-21.5v-24.8h-24.8v-21.5h24.8v-24.8H808v24.8h24.8V490.1z"/>
	<path class="st4" d="M796.8,411.7c-37.3,0.3-67.4,30.8-67.2,68.1c0.1,7.9,1.5,15.5,4.1,22.5c9.5,26.2,34.6,44.8,64,44.6
		c37.3-0.3,67.4-30.8,67.2-68.1c-0.3-37.1-30.6-67.2-67.7-67.2C797.1,411.7,797,411.7,796.8,411.7z M847.6,479
		c0.2,27.8-22.3,50.5-50,50.7c-27.8,0.2-50.5-22.2-50.7-50c-0.2-27.8,22.2-50.5,50-50.7C824.7,428.8,847.4,451.2,847.6,479z"/>
	<polygon class="st2" points="808,514.9 808,490.1 832.8,490.1 832.8,468.6 808,468.6 808,443.8 786.5,443.8 786.5,468.6 
		761.7,468.6 761.7,490.1 786.5,490.1 786.5,514.9 	"/>
</g>
<g>
	<rect x="639.7" y="198.9" class="st5" width="103.9" height="5.3"/>
	<path class="st6" d="M629.1,227.4v-23.2h-41.7c-4.6,0-9,1.8-12.2,5.1c-3.2,3.2-5.1,7.7-5.1,12.2v290.1c0,4.6,1.8,9,5.1,12.2
		c3.2,3.2,7.7,5.1,12.2,5.1h206.1c4.6,0,9-1.8,12.2-5.1c3.2-3.2,5.1-7.7,5.1-12.2V221.5c0-4.6-1.9-9-5.1-12.2
		c-3.2-3.2-7.7-5.1-12.2-5.1h-39.2v23.2h39.2v267v8.3H587.4V227.4H629.1z"/>
	<rect x="639.7" y="204.2" class="st6" width="103.9" height="23.2"/>
	<path class="st7" d="M587.4,227.4v275.3h206.1v-8.3v-267h-39.2v16.5c0,1.4-0.6,2.8-1.5,3.8c-1,1-2.4,1.6-3.8,1.6H634.4
		c-1.4,0-2.8-0.6-3.8-1.6c-1-1-1.6-2.4-1.6-3.8v-16.5H587.4z M776.2,451.6H604.7v-18.4h171.4V451.6z M776.2,409.9H604.7v-18.4h171.4
		V409.9z M776.2,368.2H604.7v-18.4h171.4V368.2z M776.2,326.6H604.7v-18.4h171.4V326.6z M776.2,266.5v18.4H604.7v-18.4H776.2z"/>
	<rect x="639.7" y="227.4" class="st7" width="103.9" height="11.2"/>
	<path class="st8" d="M634.4,188.3c-1.4,0-2.8,0.6-3.8,1.6c-1,1-1.6,2.4-1.6,3.8v10.6v23.2v16.5c0,1.4,0.6,2.8,1.6,3.8
		c1,1,2.4,1.6,3.8,1.6H749c1.4,0,2.8-0.6,3.8-1.6c1-1,1.5-2.4,1.5-3.8v-16.5v-23.2v-10.6c0-1.4-0.6-2.8-1.5-3.8
		c-1-1-2.4-1.6-3.8-1.6H634.4z M743.7,204.2v23.2v11.2H639.7v-11.2v-23.2v-5.3h103.9V204.2z"/>
	<rect x="604.7" y="266.5" class="st9" width="171.4" height="18.4"/>
	<rect x="604.7" y="308.1" class="st9" width="171.4" height="18.4"/>
	<rect x="604.7" y="349.8" class="st9" width="171.4" height="18.4"/>
	<rect x="604.7" y="391.5" class="st9" width="171.4" height="18.4"/>
	<rect x="604.7" y="433.2" class="st9" width="171.4" height="18.4"/>
</g>
<g class="st0">
	<path class="st10" d="M213.3,294.9l-9.3,9.3L190.2,318l-9.6,9.6l-12.1,12.1l-9.6,9.6l-2.1,2.1l2.2,2.2l81.9-81.9h0l-2.2-2.2
		l-8.7,8.7v-24c0-0.8-0.3-1.7-0.9-2.3c-0.6-0.6-1.4-0.9-2.3-0.9H119.5c-0.8,0-1.7,0.3-2.3,0.9c-0.6,0.6-0.9,1.4-0.9,2.3v143.4
		c0,0.8,0.3,1.7,0.9,2.3c0.6,0.6,1.4,0.9,2.3,0.9h87.8c0.8,0,1.7-0.3,2.3-0.9l9.9-9.8l0,0l9.7-9.7c0.6-0.6,0.9-1.4,0.9-2.3v-73.8
		l-6.4,6.4v61h-20.4c-0.8,0-1.7,0.3-2.3,0.9c-0.6,0.6-0.9,1.4-0.9,2.3v19.5h-77.4v-137h101v27.2L213.3,294.9z M206.5,378.1h17
		l-17,16.4V378.1z"/>
	<rect x="137" y="273.9" class="st10" width="77.6" height="9.3"/>
	<polygon class="st10" points="128.2,304.1 204.1,304.1 213.3,294.9 128.2,294.9 	"/>
	<polygon class="st10" points="128.5,327.5 180.6,327.5 190.2,318 128.5,318 	"/>
	<polygon class="st10" points="217.8,327.5 217.8,318 216.4,318 206.8,327.5 	"/>
	<polygon class="st10" points="217.8,349.3 217.8,339.7 194.7,339.7 185.1,349.3 	"/>
	<polygon class="st10" points="128.5,349.3 158.9,349.3 168.5,339.7 128.5,339.7 	"/>
	<polygon class="st10" points="146.4,371 146.7,370.3 151.1,361.4 128.5,361.4 128.5,371 	"/>
	<path class="st10" d="M167.3,366.5l-9.2,4.5h37.5v-9.6h-22.7l-3,3l0,0v0l-2.2-2.2l-0.8-0.8h-2.4l3.2,3.2c0.3,0.3,0.4,0.7,0.3,1
		C167.9,366,167.6,366.3,167.3,366.5z"/>
	<polygon class="st2" points="223.5,378.1 206.5,378.1 206.5,394.5 	"/>
	<path class="st2" d="M213.3,294.9l10.3-10.3v-27.2h-101v137h77.4v-19.5c0-0.8,0.3-1.7,0.9-2.3c0.6-0.6,1.4-0.9,2.3-0.9h20.4v-61
		l6.4-6.4l21.7-21.7l-40.1,40.1l4.7-4.7h1.5v9.6h-11.1l-36.9,36.9l0,0l3-3h22.7v9.6h-37.5l-7.2,3.5l-5,2.5c-0.5,0.2-1,0.1-1.4-0.2
		c-0.4-0.4-0.5-0.9-0.2-1.4l2.2-4.4h-17.9v-9.6h22.6l3.6-7.4c0.2-0.4,0.5-0.6,0.9-0.7c0.4-0.1,0.8,0.1,1,0.3l7.7,7.7h2.4l0.8,0.8
		l81.9-81.9l-8.7-8.7L159,353.5l-2.2-2.2l2.1-2.1h-30.4v-9.6h40l12.1-12.1h-52.1V318h61.7l13.8-13.8h-75.8v-9.3H213.3z M137,273.9
		h77.6v9.3H137V273.9z M185.1,349.3l9.6-9.6h23.2v9.6H185.1z M242.1,273.3l5.8,5.8L166.1,361l-5.8-5.8L242.1,273.3z"/>
	<polygon class="st2" points="206.8,327.5 206.8,327.5 211.7,322.7 	"/>
	
		<rect x="146.2" y="313" transform="matrix(0.7071 -0.7071 0.7071 0.7071 -164.4736 237.2167)" class="st10" width="115.8" height="8.2"/>
	<polygon class="st10" points="169.9,364.4 169.9,364.4 251.8,282.5 249.6,280.3 167.7,362.2 	"/>
	<path class="st10" d="M156.7,353.6c-0.3-0.3-0.7-0.4-1-0.3c-0.4,0.1-0.7,0.3-0.9,0.7l-3.6,7.4l-4.4,9l4.2,4.2l7.2-3.5l9.2-4.5
		c0.3-0.2,0.6-0.5,0.7-0.9c0.1-0.4-0.1-0.8-0.3-1l-3.2-3.2L156.7,353.6z"/>
	<path class="st10" d="M144.3,375.4c-0.2,0.5-0.1,1,0.2,1.4c0.4,0.4,0.9,0.5,1.4,0.2l5-2.5l-4.2-4.2l-0.3,0.6L144.3,375.4z"/>
	<path class="st10" d="M246.7,261.5l-1.5,1.5l-2.5,2.5l-2.7,2.7l13.1,13.1l2.7-2.7l2.5-2.5l1.5-1.5c3.6-3.6,3.6-9.5,0-13.1
		C256.2,257.9,250.3,257.9,246.7,261.5z"/>
</g>
<g class="st0">
	<g>
		<path class="st11" d="M855.9,165.9c-1.5,0-3.1,0.6-4.1,1.7c-1.1,1.1-1.7,2.6-1.7,4.1v175.1c0,1.5,0.6,3.1,1.7,4.1
			c1.1,1.1,2.6,1.7,4.1,1.7h60.2V245c0-1,0.4-2,1.1-2.8c0.7-0.7,1.7-1.1,2.8-1.1h72.8v-69.3c0-1.5-0.6-3.1-1.7-4.1
			c-1.1-1.1-2.6-1.7-4.1-1.7H855.9z M912.9,314.3h-46v-11.7h46V314.3z M912.9,287.8h-46.8v-11.7h46.8V287.8z M912.9,261.3h-46v-11.7
			h46V261.3z M975.9,234.8h-109v-11.7h109V234.8z M975.9,208.3h-98v-11.7h98V208.3z"/>
		<rect x="878" y="196.6" class="st2" width="98" height="11.7"/>
		<rect x="866.9" y="223.1" class="st2" width="109" height="11.7"/>
		<rect x="866.9" y="249.6" class="st2" width="46" height="11.7"/>
		<rect x="866.1" y="276.1" class="st2" width="46.8" height="11.7"/>
		<rect x="866.9" y="302.6" class="st2" width="46" height="11.7"/>
	</g>
	<g class="st12">
		<path class="st7" d="M923.9,416.2h123.2V248.9H923.9V416.2z M942.1,269.8h98v11.7h-98V269.8z M931,296.4h109v11.7H931V296.4z
			 M931,322.9h109v11.7H931V322.9z M931,349.4h109v11.7H931V349.4z M931,375.9h81.9v11.7H931V375.9z"/>
		<path class="st13" d="M992.8,241.1H920c-1,0-2,0.4-2.8,1.1c-0.7,0.7-1.1,1.7-1.1,2.8v107.7v67.4c0,1,0.4,2,1.1,2.8
			c0.7,0.7,1.7,1.1,2.8,1.1h131.1c1,0,2-0.4,2.8-1.1c0.7-0.7,1.1-1.7,1.1-2.8V245c0-1-0.4-2-1.1-2.8c-0.7-0.7-1.7-1.1-2.8-1.1H992.8
			z M1047.2,416.2H923.9V248.9h123.2V416.2z"/>
		<rect x="942.1" y="269.8" class="st13" width="98" height="11.7"/>
		<rect x="931" y="296.4" class="st13" width="109" height="11.7"/>
		<rect x="931" y="322.9" class="st13" width="109" height="11.7"/>
		<rect x="931" y="349.4" class="st13" width="109" height="11.7"/>
		<rect x="931" y="375.9" class="st13" width="81.9" height="11.7"/>
	</g>
</g>
<g class="st0">
	<path class="st14" d="M1203.1,478.5h-149.6l11.6,29l136.4,0.1c0,0,4.9,0.3,7.7,0.9l-0.3-0.1v-24
		C1208.9,481.2,1206.3,478.5,1203.1,478.5z"/>
	<path class="st15" d="M1209.2,508.5c-2.7-0.6-7.7-0.9-7.7-0.9l-136.4-0.1l-11.6-29l-4.3-10.6h-65.3c-6.9,0-12.4,5.6-12.4,12.4
		v169.6c0,6.8,5.6,12.4,12.4,12.4h231.7c6.9,0,12.4-5.5,12.4-12.4V533.2C1228,521.4,1220,511.5,1209.2,508.5z M1146.2,598.7h-32.4
		v32.4h-28.1v-32.4h-32.4v-28.1h32.4v-32.4h28.1v32.4h32.4V598.7z"/>
	<polygon class="st2" points="1113.8,631.2 1113.8,598.7 1146.2,598.7 1146.2,570.7 1113.8,570.7 1113.8,538.2 1085.7,538.2 
		1085.7,570.7 1053.3,570.7 1053.3,598.7 1085.7,598.7 1085.7,631.2 	"/>
</g>
</svg>
